<svg xmlns="http://www.w3.org/2000/svg" xmlns:xlink="http://www.w3.org/1999/xlink" width="21px" height="21px" viewBox="0 0 21 21" version="1.1" transform="matrix(1, 0, 0, 1, 0, 0)">
<g id="surface1">
<path style=" stroke:none;fill-rule:nonzero;fill:#d9ec08;fill-opacity:1;" d="M 0 10.5 L 0 21 L 21 21 L 21 0 L 0 0 Z M 14.449219 2.046875 C 14.480469 2.132812 14.417969 2.320312 14.300781 2.46875 C 13.902344 2.972656 14.238281 3.246094 14.941406 2.980469 C 15.730469 2.6875 15.8125 2.6875 16.054688 2.992188 C 16.210938 3.203125 16.273438 3.433594 16.273438 3.789062 C 16.273438 4.421875 16.527344 4.726562 17.042969 4.726562 C 17.417969 4.726562 17.640625 4.882812 17.640625 5.132812 C 17.628906 5.269531 17.617188 5.269531 17.523438 5.113281 C 17.472656 5.019531 17.324219 4.933594 17.21875 4.933594 C 17.011719 4.933594 17.011719 4.933594 17.21875 5.144531 C 17.515625 5.4375 17.484375 5.636719 17.113281 5.964844 C 16.945312 6.121094 16.800781 6.332031 16.800781 6.445312 C 16.800781 6.5625 16.714844 6.742188 16.621094 6.855469 C 16.441406 7.054688 16.441406 7.054688 16.695312 6.992188 C 16.925781 6.929688 16.9375 6.929688 16.757812 7.046875 C 16.601562 7.140625 16.496094 7.128906 16.222656 6.992188 C 16.042969 6.886719 15.824219 6.824219 15.738281 6.847656 C 15.582031 6.878906 15.582031 6.835938 15.6875 6.40625 C 15.75 6.140625 15.75 6.140625 15.632812 6.375 C 15.5625 6.511719 15.476562 6.613281 15.445312 6.613281 C 15.414062 6.613281 15.214844 6.101562 15.003906 5.480469 C 14.804688 4.863281 14.605469 4.285156 14.5625 4.199219 C 14.5 4.074219 14.585938 4.042969 14.984375 4.042969 C 15.53125 4.042969 15.664062 3.886719 15.402344 3.527344 C 15.296875 3.382812 15.097656 3.328125 14.59375 3.316406 C 14.050781 3.296875 13.890625 3.246094 13.734375 3.046875 C 13.472656 2.71875 13.492188 2.539062 13.828125 2.5 C 14.21875 2.457031 14.25 2.246094 13.890625 2.058594 L 13.597656 1.902344 L 13.996094 1.890625 C 14.25 1.890625 14.417969 1.941406 14.449219 2.046875 Z M 9.199219 2.761719 C 9.09375 2.84375 9.039062 2.960938 9.082031 3.066406 C 9.136719 3.203125 9.230469 3.234375 9.480469 3.171875 C 9.921875 3.078125 10.878906 3.078125 11.328125 3.171875 C 11.65625 3.246094 11.664062 3.246094 11.539062 3.078125 C 11.414062 2.917969 11.414062 2.910156 11.601562 2.972656 C 11.78125 3.035156 11.78125 3.011719 11.558594 2.835938 C 11.234375 2.550781 11.519531 2.550781 12.054688 2.824219 C 12.453125 3.023438 13.335938 3.832031 13.335938 4 C 13.335938 4.042969 13.617188 4.429688 13.964844 4.871094 C 14.5 5.535156 14.910156 6.226562 14.910156 6.457031 C 14.910156 6.488281 14.648438 6.214844 14.320312 5.859375 C 13.996094 5.492188 13.671875 5.207031 13.597656 5.230469 C 13.523438 5.238281 13.3125 5.050781 13.136719 4.808594 C 12.945312 4.558594 12.746094 4.359375 12.671875 4.359375 C 12.609375 4.359375 12.390625 4.09375 12.199219 3.78125 L 11.84375 3.203125 L 11.917969 3.675781 C 11.949219 3.9375 12 4.285156 12.023438 4.460938 C 12.074219 4.765625 12.066406 4.765625 11.929688 4.410156 C 11.800781 4.105469 11.769531 4.085938 11.769531 4.285156 C 11.761719 4.429688 11.71875 4.503906 11.644531 4.453125 C 11.558594 4.410156 11.550781 4.460938 11.601562 4.621094 C 11.65625 4.777344 11.644531 4.828125 11.558594 4.789062 C 11.496094 4.746094 11.445312 4.789062 11.433594 4.902344 C 11.433594 5.070312 11.425781 5.070312 11.339844 4.882812 C 11.257812 4.671875 11.246094 4.671875 11.246094 4.894531 C 11.234375 5.019531 11.140625 5.238281 11.015625 5.398438 C 10.585938 5.941406 9.554688 5.679688 9.554688 5.03125 C 9.554688 4.820312 9.273438 4.683594 9.199219 4.863281 C 9.175781 4.933594 9.144531 4.839844 9.136719 4.671875 C 9.125 4.398438 9.101562 4.390625 9.039062 4.566406 C 8.957031 4.765625 8.945312 4.757812 8.902344 4.515625 C 8.863281 4.261719 8.851562 4.261719 8.777344 4.566406 C 8.695312 4.925781 8.285156 5.796875 8.230469 5.742188 C 8.210938 5.722656 8.285156 5.523438 8.390625 5.292969 C 8.558594 4.933594 8.664062 4.535156 8.882812 3.484375 C 8.957031 3.128906 8.777344 3.214844 8.632812 3.589844 C 8.558594 3.78125 8.378906 4.074219 8.230469 4.253906 C 8.074219 4.421875 7.992188 4.492188 8.03125 4.410156 C 8.074219 4.324219 7.9375 4.441406 7.726562 4.671875 C 7.527344 4.902344 7.359375 5.132812 7.351562 5.1875 C 7.351562 5.238281 7.285156 5.21875 7.203125 5.15625 C 7.097656 5.0625 7.023438 5.09375 6.898438 5.269531 C 6.816406 5.40625 6.550781 5.722656 6.308594 5.984375 C 5.734375 6.625 5.742188 6.300781 6.332031 5.480469 C 7.78125 3.445312 8.054688 3.128906 8.640625 2.84375 C 9.144531 2.59375 9.503906 2.539062 9.199219 2.761719 Z M 6.929688 3.265625 C 7.046875 3.347656 7.054688 3.390625 6.960938 3.421875 C 6.519531 3.613281 6.152344 4.105469 5.785156 5.082031 C 5.660156 5.375 5.628906 5.386719 5.09375 5.199219 C 4.976562 5.164062 5.007812 5.207031 5.175781 5.300781 C 5.542969 5.511719 5.535156 5.574219 5.164062 5.503906 C 4.757812 5.417969 4.535156 5.679688 4.726562 6.027344 C 4.789062 6.164062 4.820312 6.375 4.789062 6.488281 C 4.734375 6.636719 4.777344 6.742188 4.902344 6.824219 C 5.082031 6.929688 5.082031 6.941406 4.882812 6.898438 C 4.726562 6.878906 4.683594 6.804688 4.695312 6.5625 C 4.714844 6.382812 4.640625 6.101562 4.546875 5.910156 C 4.429688 5.691406 4.398438 5.535156 4.472656 5.4375 C 4.527344 5.355469 4.460938 5.40625 4.335938 5.542969 C 4.199219 5.710938 4.054688 5.785156 3.949219 5.742188 C 3.851562 5.703125 3.78125 5.722656 3.78125 5.773438 C 3.78125 5.839844 3.820312 5.878906 3.875 5.878906 C 4.074219 5.878906 4.117188 6.308594 3.949219 6.5625 C 3.707031 6.929688 3.726562 7.003906 4.199219 7.296875 C 4.621094 7.558594 4.746094 7.886719 4.503906 8.042969 C 4.429688 8.085938 4.515625 8.167969 4.714844 8.253906 C 4.957031 8.359375 5.039062 8.453125 5.039062 8.664062 C 5.039062 8.902344 4.367188 10.394531 4.261719 10.394531 C 3.863281 10.394531 3.757812 9.976562 4.125 9.816406 C 4.546875 9.628906 4.429688 9.25 3.8125 8.820312 C 3.003906 8.261719 2.742188 7.992188 2.625 7.570312 C 2.53125 7.222656 2.539062 7.171875 2.78125 6.984375 C 3.117188 6.710938 3.117188 6.4375 2.78125 5.996094 C 2.445312 5.535156 2.257812 4.660156 2.40625 4.285156 C 2.582031 3.8125 2.949219 3.800781 3.652344 4.230469 C 3.980469 4.429688 4.421875 4.621094 4.621094 4.640625 C 4.945312 4.671875 4.996094 4.640625 5.09375 4.359375 C 5.21875 3.988281 5.367188 3.851562 5.503906 3.988281 C 5.691406 4.179688 5.878906 4.09375 6.027344 3.738281 C 6.238281 3.222656 6.605469 3.035156 6.929688 3.265625 Z M 12.515625 5.636719 C 12.578125 5.710938 12.601562 5.773438 12.558594 5.773438 C 12.453125 5.773438 12.074219 5.101562 12.085938 4.933594 C 12.085938 4.851562 12.160156 4.945312 12.253906 5.144531 C 12.335938 5.34375 12.464844 5.574219 12.515625 5.636719 Z M 9.808594 6.195312 C 9.679688 6.238281 9.554688 6.351562 9.523438 6.445312 C 9.480469 6.550781 9.335938 6.613281 9.144531 6.613281 C 8.695312 6.613281 8.652344 6.78125 9.050781 6.992188 C 9.238281 7.085938 9.429688 7.222656 9.472656 7.285156 C 9.574219 7.445312 9.1875 7.769531 8.902344 7.769531 C 8.671875 7.757812 8.671875 7.757812 8.863281 7.613281 C 9.050781 7.464844 9.039062 7.453125 8.757812 7.328125 C 8.589844 7.253906 8.398438 7.128906 8.335938 7.046875 C 8.222656 6.898438 7.769531 6.972656 7.769531 7.152344 C 7.769531 7.265625 7.550781 7.265625 7.359375 7.152344 C 7.222656 7.066406 7.222656 7.023438 7.359375 6.867188 C 7.488281 6.710938 7.488281 6.699219 7.285156 6.761719 C 7.152344 6.804688 7.015625 6.773438 6.941406 6.679688 C 6.835938 6.5625 6.910156 6.511719 7.351562 6.40625 C 7.875 6.277344 9.101562 6.121094 9.710938 6.109375 C 9.984375 6.101562 9.996094 6.109375 9.808594 6.195312 Z M 10.5 6.246094 C 10.5 6.332031 10.425781 6.40625 10.34375 6.40625 C 10.175781 6.40625 10.132812 6.277344 10.257812 6.164062 C 10.375 6.039062 10.5 6.078125 10.5 6.246094 Z M 11.929688 6.195312 C 12.453125 6.246094 13.136719 6.351562 13.441406 6.414062 C 13.945312 6.519531 13.984375 6.550781 13.816406 6.679688 C 13.703125 6.75 13.503906 6.792969 13.324219 6.75 C 13.105469 6.710938 13.007812 6.742188 12.957031 6.855469 C 12.925781 6.949219 12.832031 6.992188 12.738281 6.960938 C 12.640625 6.917969 12.515625 6.960938 12.453125 7.046875 C 12.390625 7.128906 12.199219 7.253906 12.03125 7.328125 C 11.792969 7.433594 11.761719 7.488281 11.863281 7.613281 C 11.96875 7.75 11.960938 7.769531 11.761719 7.769531 C 11.625 7.769531 11.457031 7.6875 11.371094 7.582031 C 11.222656 7.414062 11.222656 7.414062 11.277344 7.582031 C 11.320312 7.726562 11.277344 7.769531 11.078125 7.769531 C 10.910156 7.769531 10.816406 7.707031 10.816406 7.613281 C 10.816406 7.527344 10.886719 7.453125 10.972656 7.453125 C 11.046875 7.453125 11.160156 7.390625 11.203125 7.320312 C 11.246094 7.253906 11.425781 7.109375 11.601562 7.015625 C 12.042969 6.773438 12.054688 6.613281 11.625 6.613281 C 11.390625 6.613281 11.234375 6.550781 11.191406 6.457031 C 11.160156 6.363281 11.023438 6.246094 10.898438 6.195312 C 10.585938 6.070312 10.773438 6.070312 11.929688 6.195312 Z M 9.910156 6.605469 C 9.691406 6.824219 9.609375 6.804688 9.691406 6.5625 C 9.734375 6.476562 9.839844 6.40625 9.933594 6.40625 C 10.101562 6.40625 10.101562 6.425781 9.910156 6.605469 Z M 11.054688 6.550781 C 11.089844 6.636719 11.089844 6.730469 11.054688 6.761719 C 10.984375 6.835938 10.710938 6.625 10.710938 6.5 C 10.710938 6.34375 10.992188 6.394531 11.054688 6.550781 Z M 6.6875 6.847656 C 6.792969 7.085938 6.65625 7.519531 6.457031 7.601562 C 6.363281 7.632812 6.351562 7.445312 6.394531 6.792969 C 6.40625 6.542969 6.5625 6.574219 6.6875 6.847656 Z M 10.65625 6.929688 C 10.65625 7.128906 10.59375 7.191406 10.394531 7.214844 L 10.132812 7.234375 L 10.394531 7.152344 C 10.648438 7.054688 10.648438 7.054688 10.320312 7.046875 C 9.976562 7.035156 9.839844 6.792969 10.113281 6.679688 C 10.40625 6.550781 10.65625 6.667969 10.65625 6.929688 Z M 14.351562 6.855469 C 14.425781 7.003906 14.425781 7.171875 14.386719 7.246094 C 14.332031 7.328125 14.320312 7.433594 14.34375 7.476562 C 14.375 7.519531 14.34375 7.558594 14.28125 7.558594 C 14.21875 7.558594 14.195312 7.613281 14.226562 7.664062 C 14.269531 7.726562 14.332031 7.75 14.386719 7.71875 C 14.425781 7.6875 14.449219 7.769531 14.40625 7.894531 C 14.351562 8.09375 14.386719 8.117188 14.667969 8.054688 C 15.015625 7.980469 15.226562 8.128906 15.226562 8.429688 C 15.226562 8.621094 15.214844 8.621094 14.960938 8.410156 C 14.816406 8.296875 14.554688 8.167969 14.386719 8.136719 C 14.089844 8.074219 13.933594 7.875 14.183594 7.875 C 14.238281 7.875 14.257812 7.824219 14.226562 7.769531 C 14.183594 7.707031 14.132812 7.6875 14.089844 7.707031 C 14.027344 7.75 14.007812 7.339844 14.058594 6.792969 C 14.082031 6.542969 14.226562 6.574219 14.351562 6.855469 Z M 6.246094 6.824219 C 6.214844 6.878906 6.121094 6.929688 6.058594 6.929688 C 5.984375 6.929688 5.996094 6.886719 6.089844 6.824219 C 6.289062 6.699219 6.332031 6.699219 6.246094 6.824219 Z M 14.648438 6.824219 C 14.679688 6.878906 14.65625 6.929688 14.605469 6.929688 C 14.542969 6.929688 14.488281 6.878906 14.488281 6.824219 C 14.488281 6.761719 14.511719 6.71875 14.53125 6.71875 C 14.5625 6.71875 14.617188 6.761719 14.648438 6.824219 Z M 13.429688 7.109375 C 13.429688 7.277344 13.398438 7.351562 13.378906 7.277344 C 13.34375 7.203125 13.25 7.183594 13.167969 7.214844 C 13.074219 7.246094 13.019531 7.191406 13.019531 7.046875 C 13.019531 6.898438 13.082031 6.824219 13.230469 6.824219 C 13.386719 6.824219 13.441406 6.886719 13.429688 7.109375 Z M 8.222656 7.296875 C 8.148438 7.496094 7.875 7.507812 7.875 7.308594 C 7.875 7.152344 8.085938 7.035156 8.210938 7.109375 C 8.253906 7.128906 8.261719 7.214844 8.222656 7.296875 Z M 9.910156 7.191406 C 9.945312 7.285156 9.910156 7.351562 9.816406 7.351562 C 9.734375 7.351562 9.660156 7.277344 9.660156 7.191406 C 9.660156 7.109375 9.703125 7.035156 9.753906 7.035156 C 9.808594 7.035156 9.871094 7.109375 9.910156 7.191406 Z M 11.023438 7.191406 C 11.023438 7.277344 10.984375 7.351562 10.921875 7.351562 C 10.867188 7.351562 10.847656 7.277344 10.878906 7.191406 C 10.921875 7.109375 10.960938 7.035156 10.984375 7.035156 C 11.003906 7.035156 11.023438 7.109375 11.023438 7.191406 Z M 14.941406 7.328125 C 14.878906 7.589844 14.488281 7.65625 14.488281 7.402344 C 14.488281 7.320312 14.585938 7.246094 14.699219 7.246094 C 14.816406 7.246094 14.910156 7.191406 14.910156 7.117188 C 14.910156 7.054688 14.929688 7.023438 14.960938 7.046875 C 14.984375 7.078125 14.984375 7.203125 14.941406 7.328125 Z M 6.226562 7.464844 C 6.152344 7.539062 6.015625 7.550781 5.910156 7.519531 C 5.734375 7.445312 5.734375 7.433594 5.921875 7.285156 C 6.164062 7.109375 6.425781 7.265625 6.226562 7.464844 Z M 12.808594 7.308594 C 12.808594 7.488281 12.578125 7.453125 12.515625 7.265625 C 12.496094 7.191406 12.546875 7.140625 12.640625 7.140625 C 12.738281 7.140625 12.808594 7.214844 12.808594 7.308594 Z M 7.078125 7.308594 C 7.160156 7.339844 7.203125 7.433594 7.171875 7.519531 C 7.128906 7.632812 7.078125 7.644531 6.972656 7.550781 C 6.886719 7.488281 6.816406 7.453125 6.816406 7.496094 C 6.710938 8.011719 6.488281 8.230469 6.375 7.9375 C 6.332031 7.832031 6.363281 7.800781 6.46875 7.84375 C 6.550781 7.875 6.613281 7.863281 6.59375 7.8125 C 6.574219 7.71875 6.804688 7.246094 6.878906 7.246094 C 6.898438 7.246094 6.984375 7.277344 7.078125 7.308594 Z M 13.964844 7.402344 C 13.964844 7.488281 13.871094 7.558594 13.753906 7.558594 C 13.546875 7.558594 13.480469 7.445312 13.617188 7.320312 C 13.746094 7.183594 13.964844 7.246094 13.964844 7.402344 Z M 10.605469 7.527344 C 10.605469 7.601562 10.488281 7.664062 10.34375 7.664062 C 10.195312 7.664062 10.078125 7.601562 10.078125 7.527344 C 10.078125 7.453125 10.195312 7.390625 10.34375 7.390625 C 10.488281 7.390625 10.605469 7.453125 10.605469 7.527344 Z M 7.855469 7.6875 C 7.875 7.78125 7.789062 7.875 7.664062 7.90625 C 7.550781 7.9375 7.453125 7.917969 7.453125 7.855469 C 7.453125 7.800781 7.414062 7.789062 7.351562 7.824219 C 7.222656 7.894531 7.222656 7.855469 7.308594 7.621094 C 7.382812 7.414062 7.8125 7.464844 7.855469 7.6875 Z M 9.953125 7.632812 C 9.976562 7.71875 9.890625 7.769531 9.722656 7.769531 C 9.460938 7.769531 9.375 7.664062 9.523438 7.519531 C 9.628906 7.414062 9.902344 7.488281 9.953125 7.632812 Z M 13.386719 7.675781 C 13.386719 7.855469 13.039062 7.9375 12.894531 7.789062 C 12.832031 7.726562 12.820312 7.632812 12.851562 7.570312 C 12.957031 7.414062 13.386719 7.496094 13.386719 7.675781 Z M 5.636719 7.789062 C 5.605469 7.875 5.574219 7.84375 5.574219 7.726562 C 5.566406 7.613281 5.597656 7.550781 5.628906 7.589844 C 5.660156 7.621094 5.671875 7.71875 5.636719 7.789062 Z M 8.328125 7.71875 C 8.328125 7.78125 8.253906 7.832031 8.160156 7.855469 C 8.03125 7.886719 8 7.84375 8.042969 7.71875 C 8.117188 7.539062 8.304688 7.539062 8.328125 7.71875 Z M 12.640625 7.71875 C 12.671875 7.8125 12.640625 7.875 12.546875 7.875 C 12.378906 7.875 12.265625 7.726562 12.359375 7.621094 C 12.464844 7.519531 12.578125 7.550781 12.640625 7.71875 Z M 7.023438 7.992188 C 6.855469 8.09375 6.78125 8.03125 6.878906 7.886719 C 6.910156 7.824219 6.992188 7.800781 7.054688 7.832031 C 7.117188 7.875 7.109375 7.925781 7.023438 7.992188 Z M 13.859375 7.925781 C 13.859375 8.023438 13.796875 8.054688 13.703125 8.023438 C 13.617188 7.980469 13.578125 7.917969 13.609375 7.863281 C 13.691406 7.71875 13.859375 7.757812 13.859375 7.925781 Z M 5.972656 8.304688 C 5.660156 8.464844 5.617188 8.472656 5.585938 8.328125 C 5.535156 8.105469 5.734375 8 6.058594 8.0625 L 6.332031 8.117188 Z M 12.359375 8.148438 C 12.328125 8.179688 12.234375 8.191406 12.160156 8.160156 C 12.074219 8.128906 12.105469 8.09375 12.222656 8.09375 C 12.335938 8.085938 12.402344 8.117188 12.359375 8.148438 Z M 8.136719 8.335938 C 7.949219 8.472656 7.960938 8.484375 8.242188 8.429688 L 8.558594 8.367188 L 8.136719 8.851562 L 8.609375 8.597656 C 9.03125 8.390625 9.230469 8.359375 10.394531 8.359375 C 11.539062 8.359375 11.769531 8.390625 12.179688 8.597656 L 12.652344 8.832031 L 12.390625 8.597656 L 12.128906 8.367188 L 12.484375 8.421875 C 12.820312 8.472656 12.832031 8.464844 12.640625 8.316406 C 12.453125 8.179688 12.464844 8.167969 12.757812 8.242188 C 13.242188 8.347656 14.121094 8.863281 14.089844 9.019531 C 14.082031 9.09375 14.113281 9.125 14.164062 9.09375 C 14.21875 9.050781 14.289062 9.070312 14.320312 9.125 C 14.425781 9.28125 14.195312 9.367188 13.859375 9.292969 C 13.511719 9.21875 13.449219 9.070312 13.734375 8.988281 C 13.828125 8.957031 13.503906 8.945312 13 8.96875 C 12.464844 8.976562 12.105469 8.957031 12.148438 8.894531 C 12.179688 8.839844 12.085938 8.882812 11.9375 8.976562 C 11.792969 9.070312 11.582031 9.136719 11.476562 9.101562 C 11.320312 9.0625 11.328125 9.050781 11.519531 9.039062 C 11.644531 9.039062 11.769531 8.988281 11.800781 8.945312 C 11.875 8.820312 8.988281 8.839844 8.902344 8.976562 C 8.851562 9.039062 8.789062 9.03125 8.714844 8.925781 C 8.664062 8.839844 8.609375 8.808594 8.609375 8.871094 C 8.609375 8.933594 8.242188 8.96875 7.695312 8.957031 C 7.183594 8.945312 6.855469 8.957031 6.960938 8.988281 C 7.382812 9.113281 7.015625 9.3125 6.320312 9.324219 C 6.109375 9.335938 6.132812 9.28125 6.53125 8.96875 C 6.78125 8.765625 7.222656 8.515625 7.507812 8.398438 C 8.148438 8.160156 8.421875 8.128906 8.136719 8.335938 Z M 9.3125 9.09375 C 9.28125 9.125 9.1875 9.136719 9.113281 9.101562 C 9.03125 9.070312 9.0625 9.039062 9.175781 9.039062 C 9.292969 9.03125 9.355469 9.0625 9.3125 9.09375 Z M 14.417969 9.859375 C 15.96875 10.246094 16.695312 10.667969 16.695312 11.160156 C 16.695312 11.320312 16.640625 11.296875 16.421875 11.023438 C 15.886719 10.394531 14.867188 10.007812 13.335938 9.847656 C 12.167969 9.734375 11.550781 9.734375 8.664062 9.808594 C 6.183594 9.878906 5.101562 10.175781 4.335938 10.992188 C 4.105469 11.234375 3.988281 11.296875 3.988281 11.191406 C 3.988281 10.910156 4.546875 10.425781 5.144531 10.195312 C 6.488281 9.671875 7.496094 9.566406 10.605469 9.597656 C 13.1875 9.617188 13.585938 9.648438 14.417969 9.859375 Z M 10.972656 10.28125 C 11.035156 10.289062 11.003906 10.34375 10.921875 10.394531 C 10.835938 10.449219 10.816406 10.5 10.878906 10.5 C 10.953125 10.5 11.035156 10.574219 11.066406 10.667969 C 11.109375 10.773438 11.089844 10.804688 11.003906 10.753906 C 10.929688 10.710938 10.921875 10.71875 10.960938 10.792969 C 11.003906 10.855469 10.984375 11.023438 10.910156 11.152344 C 10.785156 11.382812 10.785156 11.382812 11.035156 11.203125 C 11.328125 10.992188 12.042969 10.605469 12.128906 10.605469 C 12.160156 10.605469 12.167969 10.648438 12.136719 10.699219 C 12.105469 10.753906 12.253906 10.730469 12.472656 10.648438 C 13.449219 10.300781 14.636719 10.636719 14.878906 11.339844 C 15.035156 11.769531 14.960938 12.503906 14.730469 12.96875 C 14.636719 13.136719 14.070312 13.796875 13.472656 14.425781 C 12.683594 15.257812 12.390625 15.625 12.410156 15.792969 C 12.433594 15.917969 12.390625 16.003906 12.316406 15.992188 C 12.242188 15.96875 12.105469 16.105469 12.023438 16.273438 C 11.863281 16.578125 11.84375 16.589844 11.519531 16.453125 C 11.054688 16.253906 9.480469 16.253906 9.40625 16.441406 C 9.324219 16.652344 9.472656 16.695312 9.945312 16.578125 C 10.351562 16.472656 10.984375 16.570312 11.320312 16.777344 C 11.675781 17.011719 10.972656 17.554688 10.320312 17.554688 C 9.890625 17.554688 9.503906 17.316406 9.238281 16.875 C 9.125 16.683594 9.03125 16.609375 9.03125 16.695312 C 9.019531 16.777344 8.925781 16.675781 8.808594 16.453125 C 8.695312 16.234375 8.527344 16.023438 8.441406 15.992188 C 8.359375 15.960938 8.304688 15.875 8.335938 15.800781 C 8.398438 15.632812 7.664062 14.753906 6.910156 14.070312 C 5.449219 12.757812 5.367188 10.972656 6.75 10.59375 C 7.140625 10.488281 7.550781 10.5 8.515625 10.648438 C 8.832031 10.699219 9.417969 10.972656 9.703125 11.222656 C 9.921875 11.402344 9.921875 11.414062 9.691406 10.847656 C 9.640625 10.71875 9.660156 10.699219 9.777344 10.761719 C 9.902344 10.847656 9.902344 10.824219 9.777344 10.679688 C 9.679688 10.550781 9.671875 10.5 9.753906 10.5 C 9.828125 10.5 9.859375 10.457031 9.828125 10.40625 C 9.785156 10.351562 9.816406 10.289062 9.890625 10.269531 C 9.996094 10.226562 10.699219 10.238281 10.972656 10.28125 Z M 16.402344 11.886719 C 16.339844 11.949219 16.328125 11.886719 16.359375 11.6875 C 16.410156 11.464844 16.433594 11.445312 16.464844 11.59375 C 16.484375 11.695312 16.464844 11.824219 16.402344 11.886719 Z M 4.453125 11.917969 L 4.628906 12.234375 L 4.421875 11.980469 C 4.292969 11.84375 4.199219 11.6875 4.199219 11.625 C 4.199219 11.496094 4.199219 11.507812 4.453125 11.917969 Z M 16.988281 12.199219 C 17.28125 12.496094 17.125 12.90625 16.472656 13.609375 C 15.960938 14.164062 15.867188 14.320312 15.960938 14.449219 C 16.035156 14.53125 16.148438 14.59375 16.234375 14.59375 C 16.304688 14.59375 16.410156 14.679688 16.464844 14.773438 C 16.621094 15.046875 16.410156 15.382812 15.917969 15.644531 C 15.425781 15.929688 15.296875 16.074219 15.433594 16.210938 C 15.59375 16.371094 15.5625 16.515625 15.382812 16.441406 C 15.160156 16.359375 14.910156 16.472656 14.910156 16.652344 C 14.910156 16.746094 15.035156 16.800781 15.277344 16.800781 C 15.71875 16.800781 15.867188 17.042969 15.601562 17.304688 C 15.394531 17.515625 14.28125 17.554688 14.28125 17.355469 C 14.28125 17.292969 14.320312 17.199219 14.386719 17.167969 C 14.449219 17.125 14.425781 16.976562 14.320312 16.777344 C 14.164062 16.464844 14.164062 16.421875 14.332031 16.105469 C 14.480469 15.835938 14.488281 15.730469 14.386719 15.539062 C 14.320312 15.414062 14.289062 15.277344 14.332031 15.246094 C 14.363281 15.214844 14.417969 15.289062 14.449219 15.402344 C 14.5 15.601562 14.542969 15.613281 14.710938 15.507812 C 14.960938 15.351562 14.960938 15.203125 14.699219 14.960938 C 14.457031 14.742188 14.449219 14.332031 14.679688 14.050781 C 14.761719 13.953125 14.792969 13.828125 14.761719 13.765625 C 14.722656 13.703125 14.785156 13.472656 14.898438 13.242188 C 15.089844 12.894531 15.183594 12.820312 15.632812 12.703125 C 15.917969 12.640625 16.253906 12.472656 16.390625 12.328125 C 16.652344 12.042969 16.800781 12.011719 16.988281 12.199219 Z M 7.601562 16.496094 C 7.582031 16.539062 7.601562 16.601562 7.664062 16.640625 C 7.71875 16.675781 7.769531 16.789062 7.769531 16.894531 C 7.769531 17 7.886719 17.148438 8.03125 17.21875 C 8.179688 17.292969 8.273438 17.378906 8.253906 17.398438 C 8.230469 17.429688 8.117188 17.398438 8 17.335938 C 7.8125 17.230469 7.789062 17.261719 7.75 17.671875 C 7.71875 17.914062 7.707031 18.121094 7.71875 18.144531 C 7.726562 18.15625 7.875 18.101562 8.042969 18.007812 C 8.378906 17.828125 8.714844 17.785156 8.558594 17.945312 C 8.398438 18.089844 7.421875 18.59375 7.382812 18.554688 C 7.359375 18.53125 7.339844 18.164062 7.320312 17.734375 C 7.296875 16.832031 7.421875 16.054688 7.558594 16.273438 C 7.613281 16.359375 7.632812 16.453125 7.601562 16.496094 Z M 13.417969 16.96875 C 13.398438 17.15625 13.34375 17.179688 13.15625 17.105469 C 12.914062 17.019531 12.914062 17.011719 13.105469 16.652344 C 13.273438 16.328125 13.292969 16.316406 13.367188 16.515625 C 13.410156 16.640625 13.441406 16.84375 13.417969 16.96875 Z M 8.296875 17.011719 C 8.296875 17.0625 8.242188 17.113281 8.179688 17.113281 C 8.128906 17.113281 8.105469 17.0625 8.136719 17.011719 C 8.167969 16.945312 8.222656 16.90625 8.253906 16.90625 C 8.273438 16.90625 8.296875 16.945312 8.296875 17.011719 Z M 8.558594 17.21875 C 8.589844 17.273438 8.566406 17.324219 8.515625 17.324219 C 8.453125 17.324219 8.398438 17.273438 8.398438 17.21875 C 8.398438 17.15625 8.421875 17.113281 8.441406 17.113281 C 8.472656 17.113281 8.527344 17.15625 8.558594 17.21875 Z M 12.390625 17.640625 C 12.390625 17.691406 12.347656 17.746094 12.285156 17.746094 C 12.234375 17.746094 12.179688 17.691406 12.179688 17.640625 C 12.179688 17.578125 12.234375 17.535156 12.285156 17.535156 C 12.347656 17.535156 12.390625 17.578125 12.390625 17.640625 Z M 8.296875 17.683594 C 8.296875 17.714844 8.253906 17.765625 8.191406 17.796875 C 8.136719 17.828125 8.085938 17.808594 8.085938 17.753906 C 8.085938 17.691406 8.136719 17.640625 8.191406 17.640625 C 8.253906 17.640625 8.296875 17.660156 8.296875 17.683594 Z M 12.703125 17.683594 C 12.703125 17.714844 12.664062 17.765625 12.601562 17.796875 C 12.546875 17.828125 12.496094 17.808594 12.496094 17.753906 C 12.496094 17.691406 12.546875 17.640625 12.601562 17.640625 C 12.664062 17.640625 12.703125 17.660156 12.703125 17.683594 Z M 9.703125 18.050781 C 9.679688 18.082031 9.574219 18.019531 9.472656 17.914062 C 9.304688 17.734375 9.304688 17.722656 9.523438 17.859375 C 9.648438 17.933594 9.734375 18.019531 9.703125 18.050781 Z M 13.292969 17.953125 C 13.386719 17.953125 13.441406 18.070312 13.441406 18.269531 C 13.441406 18.4375 13.410156 18.585938 13.378906 18.585938 C 13.34375 18.585938 13.019531 18.425781 12.671875 18.25 C 12.023438 17.902344 12.066406 17.671875 12.726562 17.996094 C 13.136719 18.207031 13.113281 18.207031 13.0625 17.921875 C 13.039062 17.796875 13.039062 17.753906 13.082031 17.820312 C 13.113281 17.890625 13.210938 17.953125 13.292969 17.953125 Z M 10.5 18.4375 C 10.5 18.53125 10.449219 18.585938 10.375 18.5625 C 10.183594 18.5 10.152344 18.269531 10.332031 18.269531 C 10.425781 18.269531 10.5 18.34375 10.5 18.4375 Z M 10.5 18.4375 "/>
<path style=" stroke:none;fill-rule:nonzero;fill:#d9ec08;fill-opacity:1;" d="M 8.191406 6.613281 C 8.09375 6.679688 8.085938 6.71875 8.160156 6.71875 C 8.222656 6.71875 8.316406 6.667969 8.347656 6.613281 C 8.429688 6.488281 8.390625 6.488281 8.191406 6.613281 Z M 8.191406 6.613281 "/>
<path style=" stroke:none;fill-rule:nonzero;fill:#d9ec08;fill-opacity:1;" d="M 11.84375 6.375 C 11.917969 6.40625 12.011719 6.394531 12.042969 6.363281 C 12.085938 6.332031 12.023438 6.300781 11.90625 6.308594 C 11.792969 6.308594 11.761719 6.34375 11.84375 6.375 Z M 11.84375 6.375 "/>
<path style=" stroke:none;fill-rule:nonzero;fill:#d9ec08;fill-opacity:1;" d="M 12.496094 6.613281 C 12.402344 6.679688 12.390625 6.71875 12.464844 6.71875 C 12.527344 6.71875 12.621094 6.667969 12.652344 6.613281 C 12.738281 6.488281 12.695312 6.488281 12.496094 6.613281 Z M 12.496094 6.613281 "/>
<path style=" stroke:none;fill-rule:nonzero;fill:#d9ec08;fill-opacity:1;" d="M 6.960938 10.878906 C 6.816406 10.921875 6.75 10.984375 6.792969 11.089844 C 6.824219 11.183594 6.773438 11.234375 6.636719 11.234375 C 6.132812 11.234375 5.953125 11.855469 6.207031 12.746094 C 6.351562 13.28125 7.296875 14.226562 7.855469 14.394531 C 8.074219 14.457031 8.503906 14.5 8.800781 14.480469 C 9.25 14.449219 9.335938 14.46875 9.292969 14.59375 C 9.261719 14.691406 9.304688 14.667969 9.398438 14.554688 C 9.480469 14.4375 9.554688 14.386719 9.554688 14.449219 C 9.554688 14.5 9.609375 14.46875 9.671875 14.386719 C 9.765625 14.257812 9.765625 14.269531 9.710938 14.4375 C 9.554688 14.859375 9.535156 15.121094 9.648438 15.121094 C 9.710938 15.121094 9.765625 15.195312 9.765625 15.277344 C 9.765625 15.488281 10.144531 15.476562 10.226562 15.265625 C 10.269531 15.171875 10.238281 15.027344 10.175781 14.953125 C 10.113281 14.867188 10.089844 14.804688 10.144531 14.804688 C 10.183594 14.804688 10.175781 14.753906 10.101562 14.679688 C 10.027344 14.605469 9.976562 14.40625 9.976562 14.226562 C 9.976562 13.984375 9.945312 13.953125 9.871094 14.070312 C 9.796875 14.183594 9.765625 14.050781 9.765625 13.617188 C 9.765625 13.28125 9.691406 12.851562 9.609375 12.640625 C 9.523438 12.441406 9.480469 12.222656 9.511719 12.148438 C 9.574219 11.96875 9.167969 11.371094 8.789062 11.089844 C 8.503906 10.878906 7.507812 10.761719 6.960938 10.878906 Z M 8.882812 11.558594 C 9.082031 11.675781 9.292969 11.886719 9.355469 12 C 9.449219 12.179688 9.398438 12.160156 9.125 11.90625 C 8.925781 11.726562 8.671875 11.527344 8.558594 11.464844 C 8.441406 11.402344 8.390625 11.339844 8.441406 11.339844 C 8.496094 11.339844 8.695312 11.433594 8.882812 11.558594 Z M 8.359375 11.695312 C 9.136719 12.054688 9.554688 12.757812 9.554688 13.679688 L 9.554688 14.101562 L 8.957031 14.027344 C 8.199219 13.945312 7.601562 13.671875 7.152344 13.21875 C 6.613281 12.671875 6.246094 11.75 6.476562 11.519531 C 6.648438 11.339844 7.832031 11.457031 8.359375 11.695312 Z M 8.359375 11.695312 "/>
<path style=" stroke:none;fill-rule:nonzero;fill:#d9ec08;fill-opacity:1;" d="M 7.65625 12.433594 C 7.558594 12.640625 7.558594 12.738281 7.664062 12.863281 C 7.960938 13.21875 8.578125 12.808594 8.335938 12.410156 C 8.148438 12.117188 7.789062 12.128906 7.65625 12.433594 Z M 7.980469 12.496094 C 7.980469 12.546875 7.9375 12.601562 7.875 12.601562 C 7.824219 12.601562 7.769531 12.546875 7.769531 12.496094 C 7.769531 12.433594 7.824219 12.390625 7.875 12.390625 C 7.9375 12.390625 7.980469 12.433594 7.980469 12.496094 Z M 7.980469 12.496094 "/>
<path style=" stroke:none;fill-rule:nonzero;fill:#d9ec08;fill-opacity:1;" d="M 12.105469 11.023438 C 11.644531 11.222656 11.191406 11.800781 11.289062 12.054688 C 11.320312 12.128906 11.265625 12.328125 11.183594 12.496094 C 11.097656 12.664062 10.972656 13.167969 10.910156 13.617188 C 10.847656 14.070312 10.753906 14.488281 10.6875 14.5625 C 10.636719 14.636719 10.617188 14.742188 10.65625 14.804688 C 10.6875 14.859375 10.667969 14.910156 10.605469 14.910156 C 10.425781 14.910156 10.53125 15.371094 10.710938 15.414062 C 10.804688 15.425781 10.960938 15.371094 11.078125 15.289062 C 11.296875 15.128906 11.296875 15.128906 10.972656 14.34375 C 10.886719 14.152344 10.898438 14.152344 11.109375 14.34375 C 11.277344 14.480469 11.476562 14.523438 11.992188 14.5 C 12.851562 14.46875 13.378906 14.21875 13.976562 13.578125 C 14.363281 13.167969 14.488281 12.925781 14.585938 12.472656 C 14.730469 11.769531 14.617188 11.371094 14.226562 11.277344 C 14.082031 11.246094 13.964844 11.152344 13.964844 11.078125 C 13.964844 10.761719 12.757812 10.71875 12.105469 11.023438 Z M 12.023438 11.527344 C 11.464844 11.96875 11.390625 12.011719 11.675781 11.726562 C 11.84375 11.570312 12 11.445312 12.042969 11.445312 C 12.085938 11.445312 12.074219 11.476562 12.023438 11.527344 Z M 14.257812 11.8125 C 14.300781 12.285156 13.703125 13.210938 13.125 13.566406 C 12.621094 13.882812 11.570312 14.144531 11.277344 14.027344 C 11.128906 13.976562 11.109375 13.871094 11.160156 13.429688 C 11.320312 12.167969 12.234375 11.414062 13.546875 11.464844 C 14.21875 11.496094 14.226562 11.496094 14.257812 11.8125 Z M 11.035156 15.089844 C 11.171875 15.257812 11.160156 15.265625 11.003906 15.128906 C 10.898438 15.058594 10.816406 14.972656 10.816406 14.953125 C 10.816406 14.867188 10.898438 14.921875 11.035156 15.089844 Z M 11.035156 15.089844 "/>
<path style=" stroke:none;fill-rule:nonzero;fill:#d9ec08;fill-opacity:1;" d="M 12.390625 12.335938 C 12.117188 12.671875 12.527344 13.1875 12.894531 12.957031 C 13.25 12.726562 13.125 12.179688 12.703125 12.179688 C 12.601562 12.179688 12.464844 12.253906 12.390625 12.335938 Z M 12.914062 12.496094 C 12.914062 12.546875 12.871094 12.601562 12.808594 12.601562 C 12.757812 12.601562 12.703125 12.546875 12.703125 12.496094 C 12.703125 12.433594 12.757812 12.390625 12.808594 12.390625 C 12.871094 12.390625 12.914062 12.433594 12.914062 12.496094 Z M 12.914062 12.496094 "/>
<path style=" stroke:none;fill-rule:nonzero;fill:#d9ec08;fill-opacity:1;" d="M 9.847656 17.074219 C 9.878906 17.261719 9.933594 17.304688 10.007812 17.230469 C 10.152344 17.082031 10.636719 17.082031 10.785156 17.230469 C 10.867188 17.316406 10.898438 17.273438 10.886719 17.074219 C 10.867188 16.820312 10.835938 16.800781 10.332031 16.800781 C 9.808594 16.800781 9.796875 16.808594 9.847656 17.074219 Z M 9.847656 17.074219 "/>
<path style=" stroke:none;fill-rule:nonzero;fill:#d9ec08;fill-opacity:1;" d="M 7.453125 17.851562 C 7.453125 17.902344 7.507812 17.953125 7.558594 17.953125 C 7.621094 17.953125 7.664062 17.902344 7.664062 17.851562 C 7.664062 17.785156 7.621094 17.746094 7.558594 17.746094 C 7.507812 17.746094 7.453125 17.785156 7.453125 17.851562 Z M 7.453125 17.851562 "/>
</g>
</svg>